<?xml version="1.0" encoding="UTF-8"?>
<svg id="Layer_1" xmlns="http://www.w3.org/2000/svg" version="1.1" viewBox="0 0 450 450">
  <!-- Generator: Adobe Illustrator 29.5.1, SVG Export Plug-In . SVG Version: 2.1.0 Build 141)  -->
  <defs>
    <style>
      .st0 {
        fill: #fff;
      }

      .st1 {
        fill: #0d7c84;
      }
    </style>
  </defs>
  <rect class="st1" width="450" height="450" rx="40" ry="40"/>
  <path class="st0" d="M128.57,88.29c3.95,32.88,25.23,63.64,55.13,77.94,47.99,22.95,103.14,2.12,127.23-44.07,5.3-10.16,9.29-21.71,10.56-33.16l.58-.71h52.29l.64.64v272.79h-48.86v-183.43c-13.55,14.8-30.88,26.59-50.14,32.58,15.95,11.44,24.86,29.61,26.59,49.05.62,33.27-.87,66.64-.04,99.9.02.73.14,1.26.45,1.9h-44.57v-98.36c0-1.36-1.07-5.53-1.5-7.07-7.39-26.03-45.13-29.32-59.7-7.85-2.47,3.64-6.08,12.34-6.08,16.63v96.64h-43.71l-.02-100.95c1.66-19.43,10.25-37.47,25.31-49.9-18.93-6.17-35.17-17.96-48.86-32.15v183h-48.86V88.29h53.57Z"/>
</svg>