<?xml version="1.0" encoding="UTF-8"?>
<svg id="Layer_1" xmlns="http://www.w3.org/2000/svg" version="1.1" viewBox="0 0 115.7 54.2">
  <!-- Generator: Adobe Illustrator 29.7.1, SVG Export Plug-In . SVG Version: 2.1.1 Build 8)  -->
  <defs>
    <style>
      .st0 {
        fill: #d4c5ca;
      }
    </style>
  </defs>
  <path class="st0" d="M46.1,26.9h-3.3l4.2-16.7,4.4,16.7h-1.3v26.9h6.5v-26.9h4.1L68.1,0h-6.6l-5.7,22.2L50.1,0h-5.8l-5.9,22.2L32.7,0h-6.8s7.5,26.9,7.5,26.9h5.3l-3.9,6.2-3.8-6.2h-7.6l7.2,11.4-9.9,15.5h7.2l6.6-10.4,6.4,10.4h7.7l-9.9-15.6,7.2-11.3Z"/>
  <path class="st0" d="M89.9,24.8h0s0,0,0,0h0Z"/>
  <path class="st0" d="M59.4,32.4c0,6.2,4.5,7.8,9.6,8.8,5.1,1,7.5,1.5,7.5,4.1s-2.2,3.7-5.2,3.7-6.1-2-6.3-5h-6.4c0,6.1,4.8,10.1,12.6,10.1s11.8-3.9,11.8-9.6c0-6.1-4.5-7.7-9.7-8.6-5-1-7.4-1.5-7.4-3.9s2-3.5,4.8-3.5,5.1,1.8,5.4,4.3h6.4c0-2.3-.8-4.3-2.1-5.8h1.9v2.1h8.7v24.8h6.5v-24.8h8.8v-2.1h-16.4v-2.1h-14.2v-7h11.3v-5.3h-11.3v-6.8h13.8V0h-20.3v26.9h-7.8c-1.3,1.5-1.9,3.4-1.9,5.5Z"/>
  <path class="st0" d="M20.8,48.2H6.5v-7h11.3v-5.3H6.5v-6.8h13.8v-2.1H0v26.9h20.8v-5.6Z"/>
  <path class="st0" d="M114.2,44.4c.3-5.8.5-11.6.8-17.5h-6.3c.3,5.8.6,11.6.8,17.5h4.7Z"/>
  <path class="st0" d="M115.7,50.7c.4-4.8-7.2-5.3-7.6-.6-.5,5,7.5,5.6,7.6.6Z"/>
</svg>