<svg width="116" height="70" viewBox="0 0 116 70" fill="none" xmlns="http://www.w3.org/2000/svg">
<path d="M46.0618 26.9367H42.7381L46.9701 10.2305L51.3464 26.9367H50.0309V53.8372H56.5225V26.9367H60.6543L68.1336 0.0427624H61.5557L55.8426 22.1952L50.086 0.0427624H44.2435L38.3142 22.1952L32.7313 -7.62939e-06H32.665L25.9796 0.0427624L33.459 26.9367H38.801L34.8833 33.1155L31.1046 26.9367H23.4758L30.6853 38.3171L20.8177 53.8372H28.0454L34.6236 43.4328L40.9861 53.8372H48.7329L38.8648 38.231L46.0618 26.9367Z" fill="black"/>
<path d="M89.9041 24.7958V24.7966H89.9066L89.9041 24.7958Z" fill="black"/>
<path d="M59.4228 32.4214C59.4228 38.5773 63.9238 40.2249 69.0308 41.1779C74.0943 42.1748 76.5614 42.6952 76.5614 45.2532C76.5614 47.6375 74.3542 48.9381 71.3677 48.9381C67.6457 48.9381 65.3084 46.9008 65.092 43.9527L58.7301 43.8656C58.7736 50.0218 63.5776 54.0967 71.281 54.0967C78.3792 54.0967 83.053 50.1959 83.0961 44.5165C83.1397 38.4039 78.5521 36.8436 73.3584 35.8894C68.338 34.9359 65.9572 34.4154 65.9572 31.945C65.9572 29.604 67.9484 28.4336 70.7176 28.4336C73.877 28.4336 75.8246 30.2106 76.1277 32.769H82.4896C82.4555 30.4625 81.7175 28.4848 80.3939 26.9372H82.3163V29.0842H91.0582V53.8376H97.5503V29.0842H106.336V26.9372H89.9041V24.7975H75.6646V17.7748H86.9171V12.443H75.6646V5.63654H89.5135V0.042717H69.1725V26.9366H61.3688C60.1139 28.4312 59.4228 30.3058 59.4228 32.4214Z" fill="black"/>
<path d="M20.8171 48.2445H6.49204V41.2218H17.7446V35.8894H6.49204V29.0836H20.3412V26.9366H0V53.8372H20.8171V48.2445Z" fill="black"/>
<path d="M114.232 44.3906C114.485 38.5496 114.737 32.742 114.989 26.9366H108.681C108.958 32.7612 109.234 38.5689 109.511 44.3906H114.232Z" fill="black"/>
<path d="M115.656 50.744C116.05 45.9652 108.487 45.424 108.042 50.1631C107.571 55.189 115.548 55.7486 115.656 50.744Z" fill="black"/>
<path d="M3.00142 59.8811H9.24403V57.2997H0V70H3.00142V65.6224H8.12347V63.1618H3.00142V59.8811Z" fill="black"/>
<path d="M15.9469 57.1801C11.825 57.1801 9.00366 60.2209 9.00366 64.3022C9.00366 66.6925 9.97184 68.7255 11.6014 70H20.2918C21.9215 68.7255 22.8896 66.6925 22.8896 64.3022C22.8896 60.2209 20.0683 57.1801 15.9464 57.1801H15.9469ZM15.9469 68.8838C13.5859 68.8838 12.0654 66.9435 12.0654 64.3022C12.0654 61.6606 13.5859 59.7202 15.9469 59.7202C18.308 59.7202 19.8087 61.661 19.8087 64.3022C19.8087 66.943 18.2881 68.8838 15.9469 68.8838Z" fill="black"/>
<path d="M32.3143 65.4227C32.3143 67.6435 31.4938 68.8437 29.5533 68.8437C27.6127 68.8437 26.8121 67.643 26.8121 65.4227V57.2997H23.8107V65.2622C23.8107 67.3605 24.3613 68.9573 25.4319 70H33.6909C34.7645 68.9581 35.3151 67.3605 35.3151 65.2622V57.2997H32.3137V65.4227H32.3143Z" fill="black"/>
<path d="M45.4795 66.1231L39.5371 57.2997H36.8164V70H39.7576V62.4818L44.8213 70H48.4413V57.2997H45.4795V66.1231Z" fill="black"/>
<path d="M55.1242 57.2997H50.0223V70H59.5842C61.35 68.7639 62.3876 66.7339 62.3876 64.2822C62.3876 60.1607 59.486 57.2997 55.1242 57.2997ZM55.1242 68.8036H53.0238V59.8009H55.1242C57.8052 59.8009 59.3059 61.6017 59.3059 64.2822C59.3059 66.9627 57.8052 68.8036 55.1242 68.8036Z" fill="black"/>
<path d="M66.8096 57.2997L62.1648 70H65.2491L65.8693 68.2436H71.1914L71.8111 70H75.0196L70.4111 57.2997H66.8096ZM66.67 65.8226L68.5109 60.5009L70.3719 65.8226H66.6704H66.67Z" fill="black"/>
<path d="M73.2125 59.8811H77.2546V70H80.2556V59.8811H84.3178V57.2997H73.2125V59.8811Z" fill="black"/>
<path d="M88.1191 57.2997H85.1177V70H88.1191V57.2997Z" fill="black"/>
<path d="M96.0829 57.1801C91.961 57.1801 89.1396 60.2209 89.1396 64.3022C89.1396 66.6925 90.1077 68.7255 91.7373 70H100.428C102.057 68.7255 103.026 66.6925 103.026 64.3022C103.026 60.2209 100.204 57.1801 96.082 57.1801H96.0829ZM96.0829 68.8838C93.7217 68.8838 92.2013 66.9435 92.2013 64.3022C92.2013 61.6606 93.7217 59.7202 96.0829 59.7202C98.4437 59.7202 99.9444 61.661 99.9444 64.3022C99.9444 66.943 98.4241 68.8838 96.0829 68.8838Z" fill="black"/>
<path d="M112.71 57.2997V66.1231L106.767 57.2997H104.046V70H106.987V62.4818L112.051 70H115.671V57.2997H112.71Z" fill="black"/>
</svg>
