<?xml version="1.0" encoding="UTF-8"?>
<svg id="Layer_1" xmlns="http://www.w3.org/2000/svg" version="1.1" viewBox="0 0 305.1 21.2">
  <!-- Generator: Adobe Illustrator 29.4.0, SVG Export Plug-In . SVG Version: 2.1.0 Build 152)  -->
  <defs>
    <style>
      .st0 {
        fill: #777;
      }

      .st1 {
        fill: #fff;
      }
    </style>
  </defs>
  <g>
    <path class="st1" d="M0,17.9V.2h2.2l6.9,12.9h-.8L15.2.2h2.1v17.7h-2.3V3.9h.6l-6.1,11.3h-1.6L1.8,3.9h.6v14H0Z"/>
    <path class="st1" d="M28.9,18.1c-1.3,0-2.4-.2-3.4-.6s-1.9-1-2.6-1.8-1.3-1.8-1.7-2.9c-.4-1.1-.6-2.4-.6-3.7s.2-2.6.6-3.7.9-2.1,1.7-2.9c.7-.8,1.6-1.4,2.6-1.8,1-.4,2.2-.6,3.4-.6s2.4.2,3.4.6c1,.4,1.9,1,2.6,1.8s1.3,1.7,1.7,2.8c.4,1.1.6,2.4.6,3.7s-.2,2.6-.6,3.8c-.4,1.1-.9,2.1-1.7,2.9s-1.6,1.4-2.6,1.8-2.2.6-3.4.6ZM28.9,15.9c1.2,0,2.2-.3,3-.8.8-.5,1.5-1.3,1.9-2.3s.7-2.2.7-3.7-.2-2.7-.7-3.7c-.4-1-1.1-1.8-1.9-2.3-.8-.5-1.8-.8-3-.8s-2.2.3-3,.8-1.5,1.3-1.9,2.3-.7,2.2-.7,3.7.2,2.6.7,3.7,1.1,1.8,1.9,2.3,1.8.8,3,.8Z"/>
    <path class="st1" d="M48.5,18.1c-1.8,0-3.3-.4-4.6-1.1s-2.2-1.8-2.9-3.1c-.7-1.4-1-3-1-4.8s.3-3.5,1-4.8c.7-1.4,1.7-2.4,2.9-3.1,1.3-.7,2.8-1.1,4.6-1.1s2.3.2,3.4.6c1,.4,1.9.9,2.6,1.6l-.9,2.1c-.8-.7-1.6-1.2-2.4-1.5-.8-.3-1.7-.5-2.6-.5-1.9,0-3.4.6-4.4,1.8s-1.5,2.8-1.5,5,.5,3.8,1.5,5,2.5,1.8,4.4,1.8,1.8-.2,2.6-.5,1.6-.8,2.4-1.5l.9,2.1c-.7.7-1.6,1.2-2.6,1.6s-2.2.6-3.4.6v-.2Z"/>
    <path class="st1" d="M62.6,17.9V2.4h-6.3V.2h15.1v2.2h-6.3v15.5h-2.6,0Z"/>
    <path class="st1" d="M70.7,17.9v-3h3v3h-3Z"/>
    <path class="st1" d="M77.3,17.9V5.7h2.1l4.4,7.7,4.4-7.7h2.1v12.2h-2.2v-9.3h.6l-4.2,7.3h-1.2l-4.2-7.3h.6v9.3h-2.4Z"/>
    <path class="st1" d="M99.9,18.1c-1.3,0-2.5-.3-3.4-.8-1-.5-1.7-1.2-2.2-2.2-.5-.9-.8-2.1-.8-3.4s.3-2.4.8-3.3c.5-1,1.2-1.7,2.1-2.2s1.9-.8,3.1-.8,2.1.2,2.9.7,1.4,1.2,1.9,2.1c.4.9.7,2,.7,3.2v.9h-9.4v-1.6h7.7l-.4.4c0-1.3-.3-2.2-.8-2.9-.6-.7-1.3-1-2.4-1s-1.5.2-2,.6-1,.9-1.2,1.5-.4,1.4-.4,2.3v.2c0,1,.2,1.8.5,2.4.3.7.8,1.2,1.4,1.5s1.3.5,2.2.5,1.4-.1,2.1-.3,1.3-.6,1.9-1.1l.8,1.8c-.6.5-1.3.9-2.1,1.2-.9.3-1.7.4-2.6.4h-.4Z"/>
    <path class="st1" d="M107,21.2v-5.3h1.4c.4-.6.7-1.1.9-1.8.2-.6.4-1.4.5-2.2s.2-1.7.2-2.7v-3.6h9.1v10.2h2v5.3h-2.2v-3.3h-9.5v3.3h-2.4ZM110.7,15.9h5.8V7.6h-4.4v2.1c0,1.2,0,2.3-.4,3.4-.2,1.1-.6,2-1,2.8Z"/>
    <path class="st1" d="M123.5,17.9V5.7h2.3v9.7h-.7l7.3-9.7h2.1v12.2h-2.3v-9.7h.7l-7.3,9.7h-2.1Z"/>
    <path class="st1" d="M142.2,18.1c-.9,0-1.6-.2-2.3-.5s-1.2-.8-1.6-1.4c-.4-.6-.6-1.2-.6-1.9s.2-1.6.7-2.1,1.2-.9,2.3-1.1c1.1-.2,2.5-.3,4.3-.3h1.2v1.6h-3.5c-.6,0-1.1.2-1.5.3s-.6.3-.8.6-.2.6-.2.9c0,.6.2,1.1.7,1.5.4.4,1,.6,1.8.6s1.2-.1,1.6-.4c.5-.3.8-.7,1.1-1.2s.4-1.1.4-1.7v-2.9c0-1-.2-1.6-.6-2.1-.4-.4-1.1-.6-2-.6s-1.4,0-2.1.3c-.7.2-1.4.5-2.2,1l-.8-1.8c.4-.3.9-.6,1.5-.8.6-.2,1.2-.4,1.8-.5s1.2-.2,1.8-.2c1.1,0,2,.2,2.8.5s1.3.9,1.6,1.6c.3.7.5,1.6.5,2.8v7.5h-2.4v-2.7h.2c-.1.6-.4,1.1-.7,1.6-.4.4-.8.8-1.3,1s-1.1.4-1.8.4h.1Z"/>
  </g>
  <g>
    <path class="st0" d="M169.8,6.4V.6h1v2.4h1.1l1.9-2.4h1.1l-2.2,2.8-.3-.3c.2,0,.4,0,.6.2.2,0,.3.2.5.4s.3.4.5.7l1.2,2h-1l-1.1-1.8c-.1-.2-.3-.4-.4-.5s-.3-.2-.4-.3-.3,0-.6,0h-.9v2.6h-1Z"/>
    <path class="st0" d="M178.6,6.5c-.6,0-1.1,0-1.5-.4-.4-.2-.7-.6-1-1-.2-.5-.3-1-.3-1.6s.1-1.1.3-1.6c.2-.5.5-.8,1-1s.9-.4,1.5-.4,1.1,0,1.5.4c.4.3.7.6,1,1,.2.5.3,1,.3,1.6s-.1,1.1-.3,1.6-.5.8-1,1c-.4.2-.9.4-1.5.4ZM178.6,5.8c.6,0,1-.2,1.3-.6s.5-.9.5-1.7-.2-1.3-.5-1.7-.8-.6-1.3-.6-1,.2-1.3.6c-.3.4-.5.9-.5,1.7s.2,1.3.5,1.7.8.6,1.3.6Z"/>
    <path class="st0" d="M185.4,6.5c-.6,0-1.1,0-1.5-.4-.4-.2-.7-.6-1-1-.2-.5-.3-1-.3-1.6s.1-1.1.3-1.6c.2-.5.5-.8,1-1s.9-.4,1.5-.4,1.1,0,1.5.4c.4.3.7.6,1,1,.2.5.3,1,.3,1.6s-.1,1.1-.3,1.6-.5.8-1,1c-.4.2-.9.4-1.5.4ZM185.4,5.8c.6,0,1-.2,1.3-.6s.5-.9.5-1.7-.2-1.3-.5-1.7c-.3-.4-.8-.6-1.3-.6s-1,.2-1.3.6c-.3.4-.5.9-.5,1.7s.2,1.3.5,1.7.8.6,1.3.6Z"/>
    <path class="st0" d="M189.7,6.4V.6h5.1v5.8h-1V1.4h-3.1v5.1h-1Z"/>
    <path class="st0" d="M199.4,6.5c-.6,0-1.1,0-1.6-.4s-.8-.6-1-1-.4-1-.4-1.6.1-1.1.4-1.6c.2-.5.6-.8,1-1.1.4-.3.9-.4,1.5-.4s1,0,1.4.3.7.6.9,1,.3.9.3,1.5v.4h-4.6v-.6h3.9l-.2.2c0-.6-.1-1.1-.4-1.5s-.7-.5-1.2-.5-.8,0-1,.3c-.3.2-.5.4-.6.8-.1.3-.2.7-.2,1.2h0c0,.6,0,1,.2,1.3s.4.6.7.8c.3.2.7.3,1.1.3s.7,0,1-.2.6-.3.9-.5l.3.7c-.3.2-.6.4-1,.6s-.8.2-1.2.2l-.2-.2Z"/>
    <path class="st0" d="M203.2,8.6V.6h.9v1.4h-.1c.1-.5.4-.8.8-1.1s.8-.4,1.4-.4,1,0,1.4.4c.4.2.7.6.9,1,.2.5.3,1,.3,1.6s-.1,1.1-.3,1.6-.5.8-.9,1-.8.4-1.4.4-1,0-1.4-.4-.6-.6-.8-1.1h.1v3.5h-1,.1ZM206,5.8c.6,0,1-.2,1.3-.6s.5-.9.5-1.7-.2-1.3-.5-1.7c-.3-.4-.8-.6-1.3-.6s-1,.2-1.3.6c-.3.4-.5.9-.5,1.7s.2,1.3.5,1.7.8.6,1.3.6Z"/>
    <path class="st0" d="M212.2,6.5c-.4,0-.8,0-1.1-.2s-.6-.4-.8-.6c-.2-.3-.3-.6-.3-.9s.1-.8.3-1c.2-.2.6-.4,1.1-.5s1.2-.2,2.1-.2h.5v.6h-1.7c-.3,0-.6,0-.8.2-.2,0-.3.2-.4.3,0,0-.1.3-.1.5,0,.3.1.6.3.8.2.2.5.3.9.3s.6,0,.8-.2.4-.4.6-.6c.1-.3.2-.6.2-.9v-1.4c0-.5-.1-.9-.3-1.1s-.5-.3-1-.3-.7,0-1,.2-.7.3-1,.5l-.3-.7c.2-.1.4-.3.7-.4s.5-.2.8-.2h.8c.5,0,.9,0,1.2.2.3.2.6.4.7.7.2.3.2.8.2,1.3v3.7h-.9v-1.4h.1c0,.3-.2.6-.4.8-.2.2-.4.4-.7.5s-.6.2-.9.2l.4-.2Z"/>
    <path class="st0" d="M218,6.4V1.4h-2.1v-.8h5.2v.8h-2.1v5.1h-1,0Z"/>
    <path class="st0" d="M222.1,6.4V.6h.9v4.9h-.3l3.7-4.9h.8v5.8h-.9V1.5h.3l-3.7,4.9h-.8Z"/>
    <path class="st0" d="M229.1,6.4V.6h2.8c.5,0,.8,0,1.1.2.3.1.5.3.7.5.1.2.2.5.2.8s-.1.7-.4.9c-.3.3-.6.4-1,.5v-.2c.3,0,.6,0,.9.2.2,0,.4.3.6.5.2.2.2.5.2.7,0,.5-.2.9-.6,1.2s-.9.4-1.6.4h-2.9ZM230.1,3.1h1.9c.4,0,.6,0,.8-.3.2-.2.3-.4.3-.7s-.1-.5-.3-.7-.5-.2-.8-.2h-1.9v1.9ZM230.1,5.8h2c.4,0,.7,0,.9-.3s.3-.4.3-.7-.1-.6-.3-.7-.5-.3-.9-.3h-2v2Z"/>
    <path class="st0" d="M169.8,17.4v-5.8h1v2.4h3.2v-2.4h1v5.8h-1v-2.6h-3.2v2.6s-1,0-1,0Z"/>
    <path class="st0" d="M179.5,17.5c-.6,0-1.1-.1-1.6-.4-.4-.2-.8-.6-1-1s-.4-1-.4-1.6.1-1.1.4-1.6c.2-.5.6-.8,1-1.1s.9-.4,1.5-.4,1,.1,1.4.3.7.6.9,1,.3.9.3,1.5v.4h-4.6v-.6h3.9l-.2.2c0-.6-.1-1.1-.4-1.5-.3-.4-.7-.5-1.2-.5s-.8,0-1,.3c-.3.2-.5.4-.6.8-.1.3-.2.7-.2,1.2h0c0,.6,0,1,.2,1.3.2.3.4.6.7.8.3.2.7.3,1.1.3s.7,0,1-.2c.3-.1.6-.3.9-.5l.3.7c-.3.2-.6.4-1,.6-.4.1-.8.2-1.2.2l-.2-.2Z"/>
    <path class="st0" d="M185.3,17.5c-.5,0-1,0-1.4-.2-.4-.1-.8-.3-1.1-.6l.3-.7c.3.2.6.4,1,.5s.8.2,1.2.2,1,0,1.2-.3.4-.4.4-.7-.1-.5-.3-.7-.5-.2-.9-.2h-1.4v-.7h1.3c.3,0,.6,0,.8-.2s.3-.4.3-.7-.1-.5-.3-.7-.6-.3-1.1-.3-.8,0-1.1.2-.7.3-1,.5l-.3-.7c.3-.2.7-.4,1.1-.5.4-.1.9-.2,1.4-.2s1.3.1,1.7.4c.4.3.6.7.6,1.2s-.1.7-.4.9-.6.4-1,.5v-.2c.3,0,.6,0,.9.2s.4.3.6.5c.1.2.2.5.2.8,0,.5-.2.9-.6,1.2-.4.3-1.1.5-1.9.5h-.2Z"/>
    <path class="st0" d="M191.2,17.5c-.4,0-.8,0-1.1-.2s-.6-.4-.8-.6c-.2-.3-.3-.6-.3-.9s.1-.8.3-1,.6-.4,1.1-.5,1.2-.2,2.1-.2h.5v.6h-1.7c-.3,0-.6,0-.8.2-.2,0-.3.2-.4.3,0,.1-.1.3-.1.5,0,.3.1.6.3.8s.5.3.9.3.6,0,.8-.2.4-.4.6-.6c.1-.3.2-.6.2-.9v-1.4c0-.5-.1-.9-.3-1.1s-.5-.3-1-.3-.7,0-1,.2c-.3,0-.7.3-1,.5l-.3-.7c.2-.1.4-.3.7-.4.3-.1.5-.2.8-.2h.8c.5,0,.9,0,1.2.2s.6.4.7.7.2.8.2,1.3v3.7h-.9v-1.4h.1c0,.3-.2.6-.4.8s-.4.4-.7.5-.6.2-.9.2l.4-.2Z"/>
    <path class="st0" d="M195.8,17.4v-5.8h2.8c.5,0,.8,0,1.1.2s.5.3.7.5c.1.2.2.5.2.8s-.1.7-.4.9c-.3.3-.6.4-1,.5v-.2c.3,0,.6,0,.9.2.2.1.4.3.6.5s.2.5.2.7c0,.5-.2.9-.6,1.2s-.9.4-1.6.4h-2.9ZM196.7,14.1h1.9c.4,0,.6,0,.8-.3.2-.2.3-.4.3-.7s-.1-.5-.3-.7-.5-.2-.8-.2h-1.9v1.9ZM196.7,16.8h2c.4,0,.7,0,.9-.3s.3-.4.3-.7-.1-.6-.3-.7-.5-.3-.9-.3h-2v2Z"/>
    <path class="st0" d="M202.4,17.4v-5.8h.9v4.9h-.3l3.7-4.9h.8v5.8h-.9v-4.9h.3l-3.7,4.9s-.8,0-.8,0Z"/>
    <path class="st0" d="M211.8,17.5c-.6,0-1.1-.1-1.5-.4s-.8-.6-1-1.1-.3-1-.3-1.6.1-1.1.3-1.6c.2-.4.6-.8,1-1s.9-.4,1.5-.4.7,0,1.1.2c.4.1.6.3.9.5l-.3.7c-.2-.2-.5-.4-.8-.5s-.5-.2-.8-.2c-.6,0-1.1.2-1.4.6-.3.4-.5.9-.5,1.6s.2,1.2.5,1.7c.3.4.8.6,1.4.6s.5,0,.8-.2c.3-.1.5-.3.8-.5l.3.7c-.2.2-.5.4-.9.5s-.7.2-1.1.2v.2Z"/>
    <path class="st0" d="M215,17.4v-5.8h.9v4.9h-.3l3.7-4.9h.8v5.8h-.9v-4.9h.3l-3.7,4.9s-.8,0-.8,0Z"/>
    <path class="st0" d="M222,17.4v-5.8h.8l2.2,3.9,2.2-3.9h.8v5.8h-.9v-4.7h.3l-2.2,3.8h-.5l-2.2-3.8h.3v4.7h-.9,0Z"/>
    <path class="st0" d="M230,17.4v-5.8h1v2.1h1.8c.7,0,1.3.2,1.7.5s.6.8.6,1.4,0,.7-.3,1c-.2.3-.4.5-.8.7-.3.2-.7.2-1.2.2h-2.8ZM230.9,16.7h1.7c.5,0,.8,0,1.1-.3s.4-.5.4-.9-.1-.7-.4-.9c-.2-.2-.6-.3-1.1-.3h-1.7s0,2.4,0,2.4ZM235.8,17.4v-5.8h1v5.8h-1Z"/>
    <path class="st0" d="M238,17.4l2.6-3.3v.5l-2.5-3.1h1.2l1.9,2.4h-.3l1.9-2.4h1.1l-2.5,3v-.4l2.6,3.2h-1.2l-2-2.5h.3l-2,2.5h-1.2,0Z"/>
    <path class="st0" d="M248.2,17.4v-5.8h.9v4.9h-.3l3.7-4.9h.8v5.8h-.9v-4.9h.3l-3.7,4.9s-.8,0-.8,0Z"/>
    <path class="st0" d="M257.2,17.5c-.5,0-1,0-1.4-.2-.4-.1-.8-.3-1.1-.6l.3-.7c.3.2.6.4,1,.5.4.1.8.2,1.2.2s1,0,1.2-.3.4-.4.4-.7-.1-.5-.3-.7c-.2-.2-.5-.2-.9-.2h-1.4v-.7h1.3c.3,0,.6,0,.8-.2s.3-.4.3-.7-.1-.5-.3-.7-.6-.3-1.1-.3-.8,0-1.1.2-.7.3-1,.5l-.3-.7c.3-.2.7-.4,1.1-.5s.9-.2,1.4-.2,1.3.1,1.7.4c.4.3.6.7.6,1.2s-.1.7-.4.9-.6.4-1,.5v-.2c.3,0,.6,0,.9.2s.4.3.6.5c.1.2.2.5.2.8,0,.5-.2.9-.6,1.2s-1.1.5-1.9.5h-.2Z"/>
    <path class="st0" d="M260.6,19v-2.3h.6c.2-.3.3-.6.5-.9.1-.3.2-.7.3-1.1v-3.1h4.1v5.1h.9v2.3h-.8v-1.6h-4.8v1.6h-.8ZM262.1,16.6h3v-4.3h-2.3v1.1c0,.6,0,1.2-.2,1.7-.1.6-.3,1-.5,1.4h0Z"/>
    <path class="st0" d="M270.1,17.5c-.4,0-.8,0-1.1-.2-.3-.2-.6-.4-.8-.6-.2-.3-.3-.6-.3-.9s.1-.8.3-1c.2-.2.6-.4,1.1-.5s1.2-.2,2.1-.2h.5v.6h-1.7c-.3,0-.6,0-.8.2s-.3.2-.4.3c0,.1-.1.3-.1.5,0,.3.1.6.3.8.2.2.5.3.9.3s.6,0,.8-.2c.2-.2.4-.4.6-.6.1-.3.2-.6.2-.9v-1.4c0-.5,0-.9-.3-1.1s-.5-.3-1-.3-.7,0-1,.2c-.3,0-.7.3-1,.5l-.3-.7c.2-.1.4-.3.7-.4.3-.1.5-.2.8-.2h.8c.5,0,.9,0,1.2.2s.6.4.7.7.2.8.2,1.3v3.7h-.9v-1.4h.1c0,.3-.2.6-.4.8-.2.2-.4.4-.7.5-.3.1-.6.2-.9.2l.4-.2Z"/>
    <path class="st0" d="M276,17.4v-5.1h-2.1v-.8h5.2v.8h-2.1v5.1h-1Z"/>
    <path class="st0" d="M282.7,17.5c-.6,0-1.1-.1-1.6-.4-.4-.2-.8-.6-1-1s-.4-1-.4-1.6.1-1.1.4-1.6c.2-.5.6-.8,1-1.1s.9-.4,1.5-.4,1,.1,1.4.3.7.6.9,1,.3.9.3,1.5v.4h-4.6v-.6h3.9l-.2.2c0-.6-.1-1.1-.4-1.5s-.7-.5-1.2-.5-.8,0-1,.3c-.3.2-.5.4-.6.8-.1.3-.2.7-.2,1.2h0c0,.6,0,1,.2,1.3.2.3.4.6.7.8.3.2.7.3,1.1.3s.7,0,1-.2c.3-.1.6-.3.9-.5l.3.7c-.3.2-.6.4-1,.6-.4.1-.8.2-1.2.2l-.2-.2Z"/>
    <path class="st0" d="M286.3,17.6l-.4-.8c.3-.1.5-.3.7-.4.2-.2.3-.4.4-.7s.2-.6.2-1v-3h4.2v5.8h-1v-5.1h-2.4v.7c0,.7,0,1.3-.1,1.8s-.2.9-.3,1.3c-.2.3-.4.6-.6.9-.3.2-.6.4-.9.5h.2Z"/>
    <path class="st0" d="M296.1,17.5c-.6,0-1.1-.1-1.6-.4s-.8-.6-1-1-.4-1-.4-1.6.1-1.1.4-1.6.6-.8,1-1.1.9-.4,1.5-.4,1,.1,1.4.3.7.6.9,1,.3.9.3,1.5v.4h-4.6v-.6h3.9l-.2.2c0-.6-.1-1.1-.4-1.5s-.7-.5-1.2-.5-.8,0-1,.3c-.3.2-.5.4-.6.8-.1.3-.2.7-.2,1.2h0c0,.6,0,1,.2,1.3.2.3.4.6.7.8.3.2.7.3,1.1.3s.7,0,1-.2c.3-.1.6-.3.9-.5l.3.7c-.3.2-.6.4-1,.6-.4.1-.8.2-1.2.2l-.2-.2Z"/>
    <path class="st0" d="M300,17.4v-5.8h.9v4.9h-.3l3.7-4.9h.8v5.8h-.9v-4.9h.3l-3.7,4.9s-.8,0-.8,0ZM302.5,10.8c-.3,0-.6,0-.9-.2-.3-.1-.5-.3-.7-.5s-.4-.5-.5-.9l.6-.2c.1.4.3.7.6.9.2.2.5.3.9.3s.7,0,.9-.3c.2-.2.4-.5.6-.9l.6.2c-.1.4-.3.7-.5.9s-.4.4-.7.5c-.3.1-.5.2-.9.2Z"/>
  </g>
  <rect class="st1" x="159.3" y=".3" width="1" height="17.4"/>
</svg>