<?xml version="1.0" encoding="UTF-8"?>
<svg id="Layer_1" xmlns="http://www.w3.org/2000/svg" version="1.1" viewBox="0 0 297.47 23">
  <!-- Generator: Adobe Illustrator 29.5.1, SVG Export Plug-In . SVG Version: 2.1.0 Build 141)  -->
  <defs>
    <style>
      .st0 {
        fill: #777;
      }

      .st1 {
        fill: #0d7c84;
      }
    </style>
  </defs>
  <rect x="162.57" y="3.42" width="1" height="17.4"/>
  <g>
    <path class="st1" d="M0,21.02V3.4h2.18l6.94,12.9h-.78L15.23,3.4h2.13v17.62h-2.33V7.07h.55l-6.09,11.25h-1.58L1.75,7.05h.6v13.97H0Z"/>
    <path class="st1" d="M29.16,21.25c-1.25,0-2.39-.21-3.41-.62-1.02-.42-1.89-1.02-2.62-1.82-.73-.8-1.28-1.75-1.67-2.86-.38-1.11-.58-2.35-.58-3.74s.19-2.63.58-3.74c.38-1.11.94-2.06,1.65-2.85.72-.79,1.59-1.4,2.61-1.81,1.02-.42,2.16-.62,3.43-.62s2.39.21,3.41.62c1.02.42,1.89,1.02,2.62,1.8.73.78,1.28,1.73,1.67,2.84s.58,2.35.58,3.74-.19,2.63-.58,3.75c-.38,1.12-.94,2.08-1.67,2.88-.73.8-1.6,1.41-2.62,1.82-1.02.42-2.16.62-3.41.62ZM29.16,19c1.17,0,2.17-.27,2.99-.8.83-.53,1.46-1.31,1.9-2.32.44-1.02.66-2.24.66-3.68s-.22-2.66-.65-3.67c-.43-1.02-1.06-1.79-1.89-2.31-.83-.52-1.83-.79-3.02-.79s-2.17.26-2.99.79c-.83.53-1.46,1.3-1.9,2.31-.44,1.02-.66,2.24-.66,3.67s.22,2.64.66,3.66c.44,1.03,1.08,1.8,1.9,2.34.83.53,1.82.8,2.99.8Z"/>
    <path class="st1" d="M46.52,21.25c-.92,0-1.79-.08-2.62-.24-.83-.16-1.59-.39-2.28-.7-.69-.31-1.31-.68-1.84-1.11l.83-2.05c.57.42,1.15.77,1.75,1.05.6.28,1.24.5,1.93.64.68.14,1.43.21,2.23.21,1.42,0,2.47-.25,3.14-.76.68-.51,1.02-1.17,1.02-1.99,0-.45-.1-.83-.31-1.15-.21-.32-.55-.59-1.01-.81-.47-.22-1.08-.41-1.83-.56l-2.68-.55c-1.59-.33-2.77-.88-3.55-1.65-.78-.77-1.17-1.8-1.17-3.1,0-1.07.28-2,.85-2.8.57-.8,1.35-1.42,2.34-1.85.99-.43,2.14-.65,3.45-.65.8,0,1.57.08,2.29.24.73.16,1.4.4,2.03.71s1.17.7,1.64,1.15l-.85,1.98c-.72-.63-1.5-1.1-2.33-1.41-.84-.31-1.77-.46-2.81-.46-.82,0-1.53.12-2.14.38-.61.25-1.08.6-1.4,1.05s-.49.98-.49,1.6c0,.7.23,1.26.68,1.67.45.42,1.2.73,2.26.95l2.66.55c1.67.35,2.92.89,3.73,1.62.82.73,1.23,1.71,1.23,2.92,0,1.02-.28,1.91-.83,2.69-.55.78-1.33,1.38-2.33,1.8-1,.42-2.2.64-3.58.64Z"/>
    <path class="st1" d="M61.08,21.02V5.57h-6.26v-2.17h15.11v2.17h-6.26v15.45h-2.58Z"/>
    <path class="st1" d="M69.7,21.02v-2.97h2.98v2.97h-2.98Z"/>
    <path d="M76.06,21.02v-12.2h2.46v2.6h-.28c.22-.6.52-1.11.9-1.53.38-.42.85-.74,1.39-.96.54-.23,1.14-.34,1.79-.34,1.02,0,1.85.24,2.48.72.63.48,1.07,1.23,1.3,2.23h-.35c.32-.92.86-1.64,1.63-2.16.77-.52,1.66-.79,2.68-.79.94,0,1.7.18,2.31.54.6.36,1.05.9,1.35,1.62.3.73.45,1.64.45,2.74v7.52h-2.53v-7.4c0-1.03-.18-1.79-.54-2.28s-.95-.72-1.77-.72c-.6,0-1.13.14-1.58.42s-.8.7-1.04,1.24c-.24.54-.36,1.18-.36,1.91v6.83h-2.53v-7.4c0-1.03-.17-1.79-.53-2.28-.35-.48-.94-.72-1.75-.72-.62,0-1.15.14-1.59.42-.44.28-.78.7-1.01,1.24-.23.54-.35,1.18-.35,1.91v6.83h-2.53Z"/>
    <path d="M103.25,21.25c-1.34,0-2.48-.25-3.45-.76-.96-.51-1.7-1.23-2.23-2.18-.53-.94-.79-2.06-.79-3.36s.26-2.38.78-3.32c.52-.95,1.23-1.69,2.13-2.23.9-.53,1.93-.8,3.08-.8s2.11.25,2.92.74c.81.49,1.43,1.19,1.87,2.09.43.9.65,1.97.65,3.22v.85h-9.42v-1.55h7.72l-.43.35c0-1.25-.28-2.22-.83-2.9-.55-.68-1.34-1.02-2.38-1.02-.79,0-1.45.18-1.99.55-.54.37-.96.88-1.24,1.52-.29.65-.43,1.41-.43,2.28v.15c0,.97.15,1.78.46,2.44.31.66.76,1.15,1.37,1.49.6.33,1.34.5,2.23.5.7,0,1.39-.11,2.07-.34s1.32-.58,1.92-1.06l.75,1.75c-.55.5-1.26.89-2.13,1.17-.87.28-1.75.42-2.63.42ZM101.92,7.2l2.58-5.05h2.58l-3.41,5.05h-1.75Z"/>
    <path d="M115.63,21.25c-1.07,0-2.01-.25-2.82-.76-.81-.51-1.44-1.24-1.89-2.2s-.68-2.08-.68-3.36.23-2.44.68-3.38,1.08-1.66,1.89-2.17c.81-.52,1.75-.78,2.82-.78s1.99.26,2.77.79c.78.53,1.3,1.23,1.57,2.11h-.28V3.4h2.53v17.62h-2.48v-2.75h.25c-.27.9-.79,1.62-1.57,2.16-.78.54-1.71.81-2.79.81ZM116.28,19.3c1.04,0,1.87-.38,2.51-1.12s.95-1.83.95-3.25-.32-2.52-.95-3.25-1.47-1.1-2.51-1.1-1.9.37-2.53,1.1c-.64.73-.95,1.82-.95,3.25s.32,2.5.95,3.25c.63.75,1.48,1.12,2.53,1.12Z"/>
    <path d="M125.35,6v-2.62h2.96v2.62h-2.96ZM125.58,21.02v-12.2h2.53v12.2h-2.53Z"/>
    <path d="M135.27,21.25c-.85,0-1.62-.17-2.29-.5-.68-.33-1.21-.78-1.59-1.35s-.58-1.21-.58-1.92c0-.9.23-1.61.69-2.14.46-.52,1.22-.9,2.28-1.12,1.06-.22,2.49-.34,4.3-.34h1.18v1.55h-1.15c-.9,0-1.66.03-2.28.1-.62.07-1.11.17-1.48.31s-.63.34-.79.59c-.16.25-.24.55-.24.9,0,.63.22,1.15.65,1.54s1.04.59,1.8.59c.62,0,1.16-.15,1.63-.44.47-.29.84-.69,1.12-1.19s.41-1.08.41-1.72v-2.88c0-.95-.2-1.63-.6-2.05-.4-.42-1.06-.62-1.98-.62-.7,0-1.4.1-2.11.31-.7.21-1.42.54-2.15.99l-.78-1.78c.43-.3.94-.56,1.5-.77.57-.22,1.17-.39,1.79-.51.63-.12,1.23-.19,1.82-.19,1.12,0,2.04.17,2.77.53.73.35,1.27.88,1.62,1.6s.53,1.64.53,2.78v7.52h-2.38v-2.72h.23c-.13.62-.38,1.15-.74,1.59-.36.44-.81.78-1.34,1.01-.53.23-1.14.35-1.83.35Z"/>
    <path d="M148.81,21.25c-.65,0-1.29-.06-1.9-.17s-1.19-.28-1.7-.5c-.52-.22-.98-.48-1.38-.8l.73-1.7c.42.28.86.53,1.33.74.47.21.96.36,1.47.46s1.01.15,1.49.15c.88,0,1.55-.16,2-.48.45-.32.68-.74.68-1.27,0-.43-.15-.77-.45-1.01-.3-.24-.75-.43-1.35-.56l-2.38-.47c-1.04-.22-1.82-.6-2.36-1.15-.53-.55-.8-1.25-.8-2.1,0-.77.21-1.43.63-2,.42-.57,1-1,1.75-1.31s1.62-.46,2.61-.46c.57,0,1.12.06,1.65.17.53.12,1.04.28,1.52.5.48.22.88.49,1.22.83l-.73,1.7c-.32-.28-.68-.53-1.09-.73-.41-.2-.83-.35-1.27-.46-.43-.11-.87-.16-1.3-.16-.88,0-1.55.16-1.99.49-.44.32-.66.76-.66,1.31,0,.42.13.76.4,1.02s.68.46,1.25.58l2.38.47c1.08.22,1.91.58,2.47,1.1.56.52.84,1.22.84,2.1,0,.77-.21,1.43-.63,2s-1.01,1-1.77,1.29c-.76.29-1.64.44-2.64.44Z"/>
  </g>
  <g>
    <path class="st0" d="M174.93,9.14c-.46,0-.84-.09-1.15-.26s-.53-.43-.68-.77c-.15-.34-.23-.77-.23-1.28v-3.62h.95v3.61c0,.34.04.63.13.86.09.23.23.4.43.5.2.11.44.16.73.16.33,0,.62-.08.86-.23.24-.15.44-.36.58-.64.14-.27.21-.59.21-.96v-3.31h.95v5.83h-.93v-1.34h.15c-.16.47-.41.83-.77,1.08-.36.25-.77.37-1.24.37Z"/>
    <path class="st0" d="M179.42,9.04V3.2h.93v1.3h-.13c.17-.46.43-.81.81-1.05.37-.24.8-.35,1.29-.35.45,0,.83.08,1.13.25s.53.42.68.76c.15.34.22.77.22,1.29v3.64h-.95v-3.58c0-.36-.04-.66-.13-.89-.09-.23-.23-.4-.42-.52-.19-.11-.44-.17-.75-.17-.35,0-.65.07-.91.22-.26.15-.46.36-.6.64-.14.28-.21.6-.21.97v3.32h-.95Z"/>
    <path class="st0" d="M188.64,9.14c-.6,0-1.12-.12-1.56-.37-.44-.24-.77-.59-1.01-1.04s-.36-.98-.36-1.61.12-1.14.35-1.59.56-.81.97-1.06c.41-.26.89-.38,1.43-.38s.96.12,1.33.35c.37.23.65.56.85.98.2.42.3.93.3,1.52v.37h-4.5v-.64h3.87l-.19.16c0-.64-.14-1.14-.42-1.49-.28-.36-.68-.53-1.22-.53-.4,0-.74.09-1.02.28-.28.19-.49.45-.63.78s-.21.72-.21,1.16v.07c0,.49.08.9.23,1.24.15.34.38.59.69.76.31.17.67.26,1.09.26.34,0,.67-.05.98-.16.32-.11.62-.29.9-.53l.33.68c-.26.24-.59.43-.99.58-.4.14-.81.22-1.22.22Z"/>
    <path class="st0" d="M197.76,9.14c-.57,0-1.07-.13-1.48-.38-.42-.26-.74-.61-.96-1.07-.22-.46-.33-.99-.33-1.6s.11-1.15.33-1.6c.22-.45.54-.79.96-1.03.42-.24.91-.36,1.48-.36.35,0,.7.06,1.05.19.34.13.63.31.86.54l-.33.71c-.23-.22-.48-.39-.75-.49-.27-.1-.53-.16-.77-.16-.6,0-1.05.19-1.38.57s-.48.93-.48,1.64.16,1.25.48,1.65.78.61,1.38.61c.24,0,.5-.05.77-.16.27-.1.52-.27.75-.5l.33.71c-.23.23-.52.41-.86.55-.35.13-.7.2-1.04.2Z"/>
    <path class="st0" d="M203.06,9.14c-.56,0-1.04-.12-1.45-.37-.41-.25-.72-.6-.95-1.05s-.33-.99-.33-1.6.11-1.15.33-1.6c.22-.45.54-.8.95-1.05.41-.25.89-.37,1.45-.37s1.04.12,1.45.37c.41.25.72.6.95,1.05.22.45.34.99.34,1.6s-.11,1.15-.34,1.6c-.22.45-.54.8-.95,1.05-.41.25-.89.37-1.45.37ZM203.06,8.36c.54,0,.97-.19,1.29-.58.32-.39.48-.94.48-1.66s-.16-1.28-.48-1.67c-.32-.38-.75-.58-1.29-.58s-.96.19-1.28.58-.48.94-.48,1.67.16,1.27.48,1.66c.32.39.75.58,1.28.58Z"/>
    <path class="st0" d="M209.61,9.14c-.56,0-1.04-.12-1.45-.37-.41-.25-.72-.6-.95-1.05s-.33-.99-.33-1.6.11-1.15.33-1.6c.22-.45.54-.8.95-1.05.41-.25.89-.37,1.45-.37s1.04.12,1.45.37c.41.25.72.6.95,1.05.22.45.34.99.34,1.6s-.11,1.15-.34,1.6c-.22.45-.54.8-.95,1.05-.41.25-.89.37-1.45.37ZM209.61,8.36c.54,0,.97-.19,1.29-.58.32-.39.48-.94.48-1.66s-.16-1.28-.48-1.67c-.32-.38-.75-.58-1.29-.58s-.96.19-1.28.58-.48.94-.48,1.67.16,1.27.48,1.66c.32.39.75.58,1.28.58Z"/>
    <path class="st0" d="M213.74,11.2V3.2h.93v1.38h-.12c.12-.46.37-.82.75-1.09.37-.27.82-.4,1.33-.4s.95.12,1.33.37c.38.24.67.59.88,1.04.21.45.31.99.31,1.61s-.1,1.15-.31,1.6c-.21.45-.5.8-.88,1.05-.38.25-.82.37-1.34.37s-.96-.13-1.33-.4c-.37-.27-.62-.63-.75-1.07h.14v3.53h-.95ZM216.43,8.36c.54,0,.97-.19,1.29-.58.32-.39.48-.94.48-1.66s-.16-1.28-.48-1.67c-.32-.38-.75-.58-1.29-.58s-.96.19-1.28.58-.48.94-.48,1.67.16,1.27.48,1.66c.32.39.75.58,1.28.58Z"/>
    <path class="st0" d="M223.18,9.14c-.6,0-1.12-.12-1.56-.37-.44-.24-.77-.59-1.01-1.04s-.36-.98-.36-1.61.12-1.14.35-1.59.56-.81.97-1.06c.41-.26.89-.38,1.43-.38s.96.12,1.33.35c.37.23.65.56.85.98.2.42.3.93.3,1.52v.37h-4.5v-.64h3.87l-.19.16c0-.64-.14-1.14-.42-1.49-.28-.36-.68-.53-1.22-.53-.4,0-.74.09-1.02.28-.28.19-.49.45-.63.78s-.21.72-.21,1.16v.07c0,.49.08.9.23,1.24.15.34.38.59.69.76.31.17.67.26,1.09.26.34,0,.67-.05.98-.16.32-.11.62-.29.9-.53l.33.68c-.26.24-.59.43-.99.58-.4.14-.81.22-1.22.22ZM222.66,2.42l1.21-2.42h1.02l-1.55,2.42h-.68Z"/>
    <path class="st0" d="M226.86,9.04V3.2h.93v1.38h-.12c.13-.47.36-.83.69-1.07.33-.24.76-.39,1.3-.43l.34-.04.07.84-.6.07c-.53.05-.94.22-1.23.52-.29.3-.43.71-.43,1.23v3.32h-.96Z"/>
    <path class="st0" d="M232.94,9.14c-.39,0-.74-.08-1.05-.23-.31-.16-.55-.37-.74-.64-.18-.27-.27-.58-.27-.91,0-.43.11-.77.32-1.02.22-.25.57-.42,1.07-.53.5-.1,1.18-.16,2.04-.16h.53v.64h-.52c-.48,0-.88.02-1.2.05s-.58.09-.76.17c-.19.08-.32.18-.4.31-.08.13-.12.29-.12.48,0,.33.11.6.33.8s.53.31.91.31c.31,0,.59-.08.83-.23.24-.15.43-.36.56-.62.14-.26.21-.57.21-.91v-1.37c0-.5-.1-.85-.29-1.07-.2-.22-.52-.33-.96-.33-.34,0-.68.05-1,.15-.32.1-.65.26-.99.49l-.33-.71c.2-.14.44-.27.69-.38.26-.11.53-.19.81-.25.28-.06.55-.08.81-.08.49,0,.9.08,1.22.25s.56.41.72.74c.16.33.24.76.24,1.28v3.67h-.89v-1.36h.11c-.06.3-.18.56-.36.78-.18.22-.39.38-.65.5s-.55.18-.87.18Z"/>
    <path class="st0" d="M239.65,9.14c-.67,0-1.18-.18-1.52-.55s-.51-.89-.51-1.57v-3.06h-1.12v-.76h1.12v-1.79h.95v1.79h1.81v.76h-1.81v2.96c0,.46.09.8.28,1.04.19.24.49.35.92.35.12,0,.25-.02.38-.05.13-.03.24-.06.34-.1l.17.74c-.1.06-.25.11-.45.16-.2.05-.38.07-.56.07Z"/>
    <path class="st0" d="M241.5,1.75V.66h1.18v1.09h-1.18ZM241.62,9.04V3.2h.95v5.83h-.95Z"/>
    <path class="st0" d="M246.08,9.04l-2.46-5.83h1.04l2.05,5.11h-.32l2.08-5.11h.98l-2.47,5.83h-.89Z"/>
    <path class="st0" d="M252.85,9.14c-.6,0-1.12-.12-1.56-.37-.44-.24-.77-.59-1.01-1.04s-.36-.98-.36-1.61.12-1.14.35-1.59.56-.81.97-1.06c.41-.26.89-.38,1.43-.38s.96.12,1.33.35c.37.23.65.56.85.98.2.42.3.93.3,1.52v.37h-4.5v-.64h3.87l-.19.16c0-.64-.14-1.14-.42-1.49-.28-.36-.68-.53-1.22-.53-.4,0-.74.09-1.02.28-.28.19-.49.45-.63.78s-.21.72-.21,1.16v.07c0,.49.08.9.23,1.24.15.34.38.59.69.76.31.17.67.26,1.09.26.34,0,.67-.05.98-.16.32-.11.62-.29.9-.53l.33.68c-.26.24-.59.43-.99.58-.4.14-.81.22-1.22.22Z"/>
    <path class="st0" d="M175.08,20.94c-.51,0-.95-.12-1.33-.37-.38-.25-.67-.6-.88-1.05-.21-.45-.31-.99-.31-1.6s.1-1.16.31-1.61c.21-.45.5-.8.88-1.04.38-.24.83-.37,1.33-.37s.96.13,1.33.4c.37.26.62.62.74,1.07h-.13v-3.98h.95v8.46h-.93v-1.39h.12c-.13.46-.38.82-.75,1.09-.37.27-.82.41-1.33.41ZM175.28,20.16c.54,0,.97-.19,1.29-.58.32-.39.48-.94.48-1.66s-.16-1.28-.48-1.67c-.32-.38-.75-.58-1.29-.58s-.96.19-1.28.58-.48.94-.48,1.67.16,1.27.48,1.66.75.58,1.28.58Z"/>
    <path class="st0" d="M179.92,14.98l-.43-.36c.14-.14.25-.28.32-.42s.12-.27.15-.4c.03-.13.04-.26.04-.4l.29.19h-.86v-1.22h1.2v.86c0,.22-.02.42-.06.62s-.12.39-.22.57c-.1.18-.25.37-.44.55Z"/>
    <path class="st0" d="M184.02,20.94c-.6,0-1.12-.12-1.56-.37-.44-.24-.77-.59-1.01-1.04s-.36-.98-.36-1.61.12-1.14.35-1.59.56-.81.97-1.06c.41-.26.89-.38,1.43-.38s.96.12,1.33.35c.37.23.65.56.85.98.2.42.3.93.3,1.52v.37h-4.5v-.64h3.87l-.19.16c0-.64-.14-1.14-.42-1.49-.28-.36-.68-.53-1.22-.53-.4,0-.74.09-1.02.28-.28.19-.49.45-.63.78s-.21.72-.21,1.16v.07c0,.49.08.9.23,1.24.15.34.38.59.69.76.31.17.67.26,1.09.26.34,0,.67-.05.98-.16s.62-.29.9-.53l.33.68c-.26.24-.59.43-.99.58-.4.14-.81.22-1.22.22ZM183.51,14.22l1.21-2.42h1.02l-1.55,2.42h-.68Z"/>
    <path class="st0" d="M189.92,20.94c-.51,0-.95-.12-1.33-.37-.38-.25-.67-.6-.88-1.05-.21-.45-.31-.99-.31-1.6s.1-1.16.31-1.61c.21-.45.5-.8.88-1.04.38-.24.83-.37,1.33-.37s.96.13,1.33.4c.37.26.62.62.74,1.07h-.13v-3.98h.95v8.46h-.93v-1.39h.12c-.13.46-.38.82-.75,1.09-.37.27-.82.41-1.33.41ZM190.12,20.16c.54,0,.97-.19,1.29-.58.32-.39.48-.94.48-1.66s-.16-1.28-.48-1.67c-.32-.38-.75-.58-1.29-.58s-.96.19-1.28.58-.48.94-.48,1.67.16,1.27.48,1.66.75.58,1.28.58Z"/>
    <path class="st0" d="M194.4,13.55v-1.09h1.18v1.09h-1.18ZM194.52,20.84v-5.83h.95v5.83h-.95Z"/>
    <path class="st0" d="M199.62,20.94c-.67,0-1.18-.18-1.52-.55-.34-.37-.51-.89-.51-1.57v-3.06h-1.12v-.76h1.12v-1.79h.95v1.79h1.81v.76h-1.81v2.96c0,.46.09.8.28,1.04.19.24.49.35.92.35.12,0,.25-.02.38-.05.13-.03.24-.06.34-.1l.17.74c-.1.06-.25.11-.45.16-.2.05-.38.07-.56.07Z"/>
    <path class="st0" d="M204.02,20.94c-.6,0-1.12-.12-1.56-.37-.44-.24-.77-.59-1.01-1.04s-.36-.98-.36-1.61.12-1.14.35-1.59.56-.81.97-1.06c.41-.26.89-.38,1.43-.38s.96.12,1.33.35c.37.23.65.56.85.98.2.42.3.93.3,1.52v.37h-4.5v-.64h3.87l-.19.16c0-.64-.14-1.14-.42-1.49-.28-.36-.68-.53-1.22-.53-.4,0-.74.09-1.02.28-.28.19-.49.45-.63.78s-.21.72-.21,1.16v.07c0,.49.08.9.23,1.24.15.34.38.59.69.76.31.17.67.26,1.09.26.34,0,.67-.05.98-.16s.62-.29.9-.53l.33.68c-.26.24-.59.43-.99.58-.4.14-.81.22-1.22.22Z"/>
    <path class="st0" d="M209.7,20.94c-.46,0-.84-.09-1.15-.26s-.53-.43-.68-.77c-.15-.34-.23-.77-.23-1.28v-3.62h.95v3.61c0,.34.04.63.13.86.09.23.23.4.43.5.2.11.44.16.73.16.33,0,.62-.08.86-.23s.44-.36.58-.64c.14-.27.21-.59.21-.96v-3.31h.95v5.83h-.93v-1.34h.15c-.16.47-.41.83-.77,1.08s-.77.37-1.24.37Z"/>
    <path class="st0" d="M214.19,20.84v-5.83h.93v1.38h-.12c.13-.47.36-.83.69-1.07.33-.24.76-.39,1.3-.43l.34-.04.07.84-.6.07c-.53.05-.94.22-1.23.52s-.43.71-.43,1.23v3.32h-.96Z"/>
    <path class="st0" d="M220.38,20.94c-.3,0-.59-.03-.86-.09-.28-.06-.54-.14-.78-.25-.24-.11-.44-.24-.62-.39l.31-.68c.19.15.39.28.61.38.22.1.44.17.67.22.23.05.46.07.69.07.45,0,.78-.08,1.01-.25s.34-.4.34-.68c0-.22-.07-.4-.22-.53-.15-.13-.38-.23-.71-.31l-1.07-.24c-.49-.1-.86-.28-1.1-.54-.24-.26-.36-.59-.36-1,0-.36.09-.67.28-.93.18-.26.44-.46.78-.61.34-.14.73-.22,1.18-.22.27,0,.52.03.76.08.24.06.47.14.69.25.22.11.4.24.56.4l-.32.68c-.15-.14-.32-.27-.51-.37-.19-.1-.38-.18-.58-.23-.2-.05-.4-.08-.61-.08-.44,0-.77.09-1,.26s-.34.41-.34.7c0,.22.07.41.21.55.14.14.36.25.66.31l1.07.23c.51.11.89.29,1.15.53.25.24.38.57.38.99,0,.35-.09.66-.28.92-.19.26-.45.46-.79.6-.34.14-.74.21-1.21.21Z"/>
    <path class="st0" d="M227.02,13.55v-1.09h1.18v1.09h-1.18ZM227.13,20.84v-5.83h.95v5.83h-.95Z"/>
    <path class="st0" d="M229.78,20.84v-5.83h.93v1.3h-.13c.17-.46.43-.81.81-1.05s.8-.35,1.29-.35c.45,0,.83.08,1.13.25.3.17.53.42.68.76.15.34.22.77.22,1.29v3.64h-.95v-3.58c0-.36-.04-.66-.13-.89s-.23-.4-.42-.52c-.19-.11-.44-.17-.75-.17-.35,0-.65.07-.91.22-.26.15-.46.36-.6.64-.14.28-.21.6-.21.97v3.32h-.95Z"/>
    <path class="st0" d="M238.62,20.94c-.51,0-.95-.12-1.33-.37-.38-.25-.67-.6-.88-1.05-.21-.45-.31-.99-.31-1.6s.1-1.16.31-1.61c.21-.45.5-.8.88-1.04.38-.24.83-.37,1.33-.37s.96.13,1.33.4c.37.26.62.62.74,1.07h-.13v-3.98h.95v8.46h-.93v-1.39h.12c-.13.46-.38.82-.75,1.09-.37.27-.82.41-1.33.41ZM238.82,20.16c.54,0,.97-.19,1.29-.58.32-.39.48-.94.48-1.66s-.16-1.28-.48-1.67c-.32-.38-.75-.58-1.29-.58s-.96.19-1.28.58-.48.94-.48,1.67.16,1.27.48,1.66.75.58,1.28.58Z"/>
    <path class="st0" d="M245.84,20.94c-.6,0-1.12-.12-1.56-.37-.44-.24-.77-.59-1.01-1.04s-.36-.98-.36-1.61.12-1.14.35-1.59.56-.81.97-1.06c.41-.26.89-.38,1.43-.38s.96.12,1.33.35c.37.23.65.56.85.98.2.42.3.93.3,1.52v.37h-4.5v-.64h3.87l-.19.16c0-.64-.14-1.14-.42-1.49-.28-.36-.68-.53-1.22-.53-.4,0-.74.09-1.02.28-.28.19-.49.45-.63.78s-.21.72-.21,1.16v.07c0,.49.08.9.23,1.24.15.34.38.59.69.76.31.17.67.26,1.09.26.34,0,.67-.05.98-.16s.62-.29.9-.53l.33.68c-.26.24-.59.43-.99.58-.4.14-.81.22-1.22.22ZM245.32,14.22l1.21-2.42h1.02l-1.55,2.42h-.68Z"/>
    <path class="st0" d="M249.53,23v-7.99h.93v1.38h-.12c.12-.46.37-.82.75-1.09.37-.27.82-.4,1.33-.4s.95.12,1.33.37c.38.24.67.59.88,1.04.21.45.31.99.31,1.61s-.1,1.15-.31,1.6c-.21.45-.5.8-.88,1.05-.38.25-.82.37-1.34.37s-.96-.13-1.33-.4c-.37-.27-.62-.63-.75-1.07h.14v3.53h-.95ZM252.22,20.16c.54,0,.97-.19,1.29-.58.32-.39.48-.94.48-1.66s-.16-1.28-.48-1.67c-.32-.38-.75-.58-1.29-.58s-.96.19-1.28.58-.48.94-.48,1.67.16,1.27.48,1.66.75.58,1.28.58Z"/>
    <path class="st0" d="M258.97,20.94c-.6,0-1.12-.12-1.56-.37-.44-.24-.77-.59-1.01-1.04s-.36-.98-.36-1.61.12-1.14.35-1.59.56-.81.97-1.06c.41-.26.89-.38,1.43-.38s.96.12,1.33.35c.37.23.65.56.85.98.2.42.3.93.3,1.52v.37h-4.5v-.64h3.87l-.19.16c0-.64-.14-1.14-.42-1.49-.28-.36-.68-.53-1.22-.53-.4,0-.74.09-1.02.28-.28.19-.49.45-.63.78s-.21.72-.21,1.16v.07c0,.49.08.9.23,1.24.15.34.38.59.69.76.31.17.67.26,1.09.26.34,0,.67-.05.98-.16s.62-.29.9-.53l.33.68c-.26.24-.59.43-.99.58-.4.14-.81.22-1.22.22Z"/>
    <path class="st0" d="M262.66,20.84v-5.83h.93v1.3h-.13c.17-.46.43-.81.81-1.05s.8-.35,1.29-.35c.45,0,.83.08,1.13.25.3.17.53.42.68.76.15.34.22.77.22,1.29v3.64h-.95v-3.58c0-.36-.04-.66-.13-.89s-.23-.4-.42-.52c-.19-.11-.44-.17-.75-.17-.35,0-.65.07-.91.22-.26.15-.46.36-.6.64-.14.28-.21.6-.21.97v3.32h-.95Z"/>
    <path class="st0" d="M271.49,20.94c-.51,0-.95-.12-1.33-.37-.38-.25-.67-.6-.88-1.05-.21-.45-.31-.99-.31-1.6s.1-1.16.31-1.61c.21-.45.5-.8.88-1.04.38-.24.83-.37,1.33-.37s.96.13,1.33.4c.37.26.62.62.74,1.07h-.13v-3.98h.95v8.46h-.93v-1.39h.12c-.13.46-.38.82-.75,1.09-.37.27-.82.41-1.33.41ZM271.69,20.16c.54,0,.97-.19,1.29-.58.32-.39.48-.94.48-1.66s-.16-1.28-.48-1.67c-.32-.38-.75-.58-1.29-.58s-.96.19-1.28.58-.48.94-.48,1.67.16,1.27.48,1.66.75.58,1.28.58Z"/>
    <path class="st0" d="M277.85,20.94c-.39,0-.74-.08-1.05-.23s-.55-.37-.74-.64c-.18-.27-.27-.58-.27-.91,0-.43.11-.77.32-1.02.22-.25.57-.42,1.07-.53.5-.1,1.18-.16,2.04-.16h.53v.64h-.52c-.48,0-.88.02-1.2.05-.32.03-.58.09-.76.17-.19.08-.32.18-.4.31s-.12.29-.12.48c0,.33.11.6.33.8s.53.31.91.31c.31,0,.59-.08.83-.23.24-.15.43-.36.56-.62.14-.26.21-.57.21-.91v-1.37c0-.5-.1-.85-.29-1.07-.2-.22-.52-.33-.96-.33-.34,0-.68.05-1,.15-.32.1-.65.26-.99.49l-.33-.71c.2-.14.44-.27.69-.38.26-.11.53-.19.81-.25.28-.06.55-.08.81-.08.49,0,.9.08,1.22.25.32.16.56.41.72.74.16.33.24.76.24,1.28v3.67h-.89v-1.36h.11c-.06.3-.18.56-.36.78-.18.22-.39.38-.65.5s-.55.18-.87.18Z"/>
    <path class="st0" d="M282.21,20.84v-5.83h.93v1.3h-.13c.17-.46.43-.81.81-1.05s.8-.35,1.29-.35c.45,0,.83.08,1.13.25.3.17.53.42.68.76.15.34.22.77.22,1.29v3.64h-.95v-3.58c0-.36-.04-.66-.13-.89s-.23-.4-.42-.52c-.19-.11-.44-.17-.75-.17-.35,0-.65.07-.91.22-.26.15-.46.36-.6.64-.14.28-.21.6-.21.97v3.32h-.95Z"/>
    <path class="st0" d="M291.17,20.94c-.67,0-1.18-.18-1.52-.55-.34-.37-.51-.89-.51-1.57v-3.06h-1.12v-.76h1.12v-1.79h.95v1.79h1.81v.76h-1.81v2.96c0,.46.09.8.28,1.04.19.24.49.35.92.35.12,0,.25-.02.38-.05.13-.03.24-.06.34-.1l.17.74c-.1.06-.25.11-.45.16-.2.05-.38.07-.56.07Z"/>
    <path class="st0" d="M295.19,20.94c-.3,0-.59-.03-.86-.09-.28-.06-.54-.14-.78-.25-.24-.11-.44-.24-.62-.39l.31-.68c.19.15.39.28.61.38.22.1.44.17.67.22.23.05.46.07.69.07.45,0,.78-.08,1.01-.25s.34-.4.34-.68c0-.22-.07-.4-.22-.53-.15-.13-.38-.23-.71-.31l-1.07-.24c-.49-.1-.86-.28-1.1-.54-.24-.26-.36-.59-.36-1,0-.36.09-.67.28-.93.18-.26.44-.46.78-.61.34-.14.73-.22,1.18-.22.27,0,.52.03.76.08.24.06.47.14.69.25.22.11.4.24.56.4l-.32.68c-.15-.14-.32-.27-.51-.37-.19-.1-.38-.18-.58-.23-.2-.05-.4-.08-.61-.08-.44,0-.77.09-1,.26s-.34.41-.34.7c0,.22.07.41.21.55.14.14.36.25.66.31l1.07.23c.51.11.89.29,1.15.53.25.24.38.57.38.99,0,.35-.09.66-.28.92-.19.26-.45.46-.79.6-.34.14-.74.21-1.21.21Z"/>
  </g>
</svg>