<?xml version="1.0" encoding="UTF-8"?>
<svg id="Layer_1" xmlns="http://www.w3.org/2000/svg" version="1.1" viewBox="0 0 1551.2 113.7">
  <!-- Generator: Adobe Illustrator 29.6.1, SVG Export Plug-In . SVG Version: 2.1.1 Build 9)  -->
  <defs>
    <style>
      .st0 {
        fill: #777;
      }

      .st1 {
        fill: #fff;
      }
    </style>
  </defs>
  <g>
    <path class="st0" d="M996.3,45.4V8.1h6.6v37.4h-6.6Z"/>
    <path class="st0" d="M1009.9,45.4v-25.9h6.3v5.2h-.6c.8-1.9,1.9-3.3,3.6-4.3,1.6-1,3.4-1.5,5.5-1.5s3.7.4,5,1.2c1.3.8,2.3,2,3,3.5.7,1.6,1,3.6,1,6v15.8h-6.5v-15.5c0-1.3-.2-2.4-.5-3.3-.3-.8-.8-1.5-1.5-1.9-.7-.4-1.5-.6-2.6-.6s-2.3.3-3.3.8c-.9.5-1.7,1.3-2.2,2.3-.5,1-.8,2.2-.8,3.5v14.6h-6.5Z"/>
    <path class="st0" d="M1049.4,46c-2.2,0-4.2-.5-5.8-1.6-1.7-1.1-3-2.7-3.9-4.7-.9-2-1.4-4.4-1.4-7.2s.5-5.2,1.4-7.2c.9-2,2.2-3.5,3.9-4.6,1.7-1.1,3.6-1.6,5.8-1.6s4,.5,5.5,1.6c1.6,1.1,2.6,2.5,3.2,4.2h-.6V8.1h6.5v37.4h-6.3v-5.5h.5c-.5,1.8-1.6,3.3-3.2,4.4s-3.5,1.6-5.6,1.6ZM1051.2,40.9c1.9,0,3.5-.7,4.7-2.1,1.2-1.4,1.8-3.5,1.8-6.3s-.6-4.9-1.8-6.3c-1.2-1.4-2.7-2.1-4.7-2.1s-3.5.7-4.7,2.1c-1.2,1.4-1.8,3.5-1.8,6.3s.6,4.9,1.8,6.3c1.2,1.4,2.7,2.1,4.7,2.1Z"/>
    <path class="st0" d="M1082.6,46c-2.9,0-5.3-.5-7.4-1.6-2.1-1.1-3.7-2.7-4.8-4.7-1.1-2-1.7-4.4-1.7-7.2s.5-5,1.6-7c1.1-2,2.6-3.6,4.5-4.7,1.9-1.1,4.1-1.7,6.6-1.7s4.5.5,6.2,1.6,3.1,2.6,4,4.5c1,1.9,1.4,4.3,1.4,6.9v2h-19.2v-3.8h14.6l-.8.8c0-2.4-.5-4.2-1.6-5.5-1-1.3-2.5-1.9-4.5-1.9s-2.7.3-3.7,1c-1,.7-1.8,1.7-2.3,2.9-.5,1.3-.8,2.7-.8,4.5v.4c0,1.9.3,3.6.9,4.8s1.5,2.2,2.6,2.9c1.2.6,2.6,1,4.4,1s2.8-.2,4.3-.7c1.4-.4,2.7-1.1,3.9-2.1l1.8,4.5c-1.2,1-2.7,1.8-4.6,2.4-1.8.6-3.7.9-5.5.9Z"/>
    <path class="st0" d="M1097.7,55V19.5h6.3v5.5h-.5c.5-1.8,1.6-3.3,3.2-4.3,1.6-1.1,3.5-1.6,5.6-1.6s4.2.5,5.8,1.6c1.7,1.1,3,2.6,3.9,4.6.9,2,1.4,4.4,1.4,7.2s-.5,5.1-1.4,7.2c-.9,2-2.2,3.6-3.9,4.7s-3.6,1.6-5.9,1.6-4-.5-5.6-1.6c-1.6-1.1-2.7-2.5-3.2-4.2h.6v14.8h-6.5ZM1110.6,40.9c1.9,0,3.5-.7,4.7-2.1,1.2-1.4,1.8-3.5,1.8-6.3s-.6-4.9-1.8-6.3c-1.2-1.4-2.7-2.1-4.7-2.1s-3.5.7-4.7,2.1c-1.2,1.4-1.8,3.5-1.8,6.3s.6,4.9,1.8,6.3c1.2,1.4,2.7,2.1,4.7,2.1Z"/>
    <path class="st0" d="M1140.8,46c-2.9,0-5.3-.5-7.4-1.6-2.1-1.1-3.7-2.7-4.8-4.7-1.1-2-1.7-4.4-1.7-7.2s.5-5,1.6-7c1.1-2,2.6-3.6,4.5-4.7,1.9-1.1,4.1-1.7,6.6-1.7s4.5.5,6.2,1.6,3.1,2.6,4,4.5c1,1.9,1.4,4.3,1.4,6.9v2h-19.2v-3.8h14.6l-.8.8c0-2.4-.5-4.2-1.6-5.5-1-1.3-2.5-1.9-4.5-1.9s-2.7.3-3.7,1c-1,.7-1.8,1.7-2.3,2.9-.5,1.3-.8,2.7-.8,4.5v.4c0,1.9.3,3.6.9,4.8s1.5,2.2,2.6,2.9c1.2.6,2.6,1,4.4,1s2.8-.2,4.3-.7c1.4-.4,2.7-1.1,3.9-2.1l1.8,4.5c-1.2,1-2.7,1.8-4.6,2.4-1.8.6-3.7.9-5.5.9Z"/>
    <path class="st0" d="M1156,45.4v-25.9h6.3v5.2h-.6c.8-1.9,1.9-3.3,3.6-4.3,1.6-1,3.4-1.5,5.5-1.5s3.7.4,5,1.2c1.3.8,2.3,2,3,3.5.7,1.6,1,3.6,1,6v15.8h-6.5v-15.5c0-1.3-.2-2.4-.5-3.3-.3-.8-.8-1.5-1.5-1.9-.7-.4-1.5-.6-2.6-.6s-2.3.3-3.3.8c-.9.5-1.7,1.3-2.2,2.3-.5,1-.8,2.2-.8,3.5v14.6h-6.5Z"/>
    <path class="st0" d="M1195.4,46c-2.2,0-4.2-.5-5.8-1.6-1.7-1.1-3-2.7-3.9-4.7-.9-2-1.4-4.4-1.4-7.2s.5-5.2,1.4-7.2c.9-2,2.2-3.5,3.9-4.6,1.7-1.1,3.6-1.6,5.8-1.6s4,.5,5.5,1.6c1.6,1.1,2.6,2.5,3.2,4.2h-.6V8.1h6.5v37.4h-6.3v-5.5h.5c-.5,1.8-1.6,3.3-3.2,4.4s-3.5,1.6-5.6,1.6ZM1197.2,40.9c1.9,0,3.5-.7,4.7-2.1,1.2-1.4,1.8-3.5,1.8-6.3s-.6-4.9-1.8-6.3c-1.2-1.4-2.7-2.1-4.7-2.1s-3.5.7-4.7,2.1c-1.2,1.4-1.8,3.5-1.8,6.3s.6,4.9,1.8,6.3c1.2,1.4,2.7,2.1,4.7,2.1Z"/>
    <path class="st0" d="M1228.6,46c-2.9,0-5.3-.5-7.4-1.6-2.1-1.1-3.7-2.7-4.8-4.7-1.1-2-1.7-4.4-1.7-7.2s.5-5,1.6-7c1.1-2,2.6-3.6,4.5-4.7,1.9-1.1,4.1-1.7,6.6-1.7s4.5.5,6.2,1.6,3.1,2.6,4,4.5c1,1.9,1.4,4.3,1.4,6.9v2h-19.2v-3.8h14.6l-.8.8c0-2.4-.5-4.2-1.6-5.5-1-1.3-2.5-1.9-4.5-1.9s-2.7.3-3.7,1c-1,.7-1.8,1.7-2.3,2.9-.5,1.3-.8,2.7-.8,4.5v.4c0,1.9.3,3.6.9,4.8s1.5,2.2,2.6,2.9c1.2.6,2.6,1,4.4,1s2.8-.2,4.3-.7c1.4-.4,2.7-1.1,3.9-2.1l1.8,4.5c-1.2,1-2.7,1.8-4.6,2.4-1.8.6-3.7.9-5.5.9Z"/>
    <path class="st0" d="M1243.8,45.4v-25.9h6.3v5.2h-.6c.8-1.9,1.9-3.3,3.6-4.3,1.6-1,3.4-1.5,5.5-1.5s3.7.4,5,1.2c1.3.8,2.3,2,3,3.5.7,1.6,1,3.6,1,6v15.8h-6.5v-15.5c0-1.3-.2-2.4-.5-3.3-.3-.8-.8-1.5-1.5-1.9-.7-.4-1.5-.6-2.6-.6s-2.3.3-3.3.8c-.9.5-1.7,1.3-2.2,2.3-.5,1-.8,2.2-.8,3.5v14.6h-6.5Z"/>
    <path class="st0" d="M1285.3,46c-3.4,0-5.9-.9-7.6-2.6-1.7-1.7-2.5-4.3-2.5-7.6v-11.3h-4.9v-5h4.9v-7.7h6.5v7.7h7.7v5h-7.7v10.9c0,1.7.4,3,1.1,3.8.7.8,1.9,1.3,3.5,1.3s1,0,1.5-.2c.5-.1,1.1-.3,1.6-.4l1,4.9c-.6.4-1.4.6-2.4.8s-1.9.3-2.8.3Z"/>
    <path class="st0" d="M1308.2,45.4V8.1h15.9c2.7,0,5,.5,6.9,1.4,1.9.9,3.3,2.2,4.3,4,1,1.7,1.5,3.8,1.5,6.3s-.5,4.5-1.5,6.3-2.4,3.1-4.3,4c-1.9.9-4.2,1.4-6.9,1.4h-9.2v14h-6.6ZM1314.9,26.1h8.2c2.4,0,4.1-.5,5.3-1.6,1.2-1.1,1.8-2.7,1.8-4.7s-.6-3.7-1.8-4.7c-1.2-1.1-3-1.6-5.3-1.6h-8.2v12.7Z"/>
    <path class="st0" d="M1350,46c-2.1,0-3.9-.4-5.2-1.2s-2.4-2-3.1-3.6c-.7-1.6-1-3.6-1-5.9v-15.7h6.5v15.8c0,1.2.2,2.2.5,3,.3.8.8,1.4,1.5,1.8.7.4,1.5.6,2.6.6s2.2-.3,3.1-.8c.9-.5,1.6-1.3,2.1-2.3.5-1,.8-2.2.8-3.5v-14.6h6.5v25.9h-6.3v-5.4h.7c-.7,1.9-1.8,3.4-3.3,4.4s-3.2,1.5-5.2,1.5Z"/>
    <path class="st0" d="M1384.7,46c-2.1,0-4-.5-5.6-1.6s-2.7-2.6-3.2-4.4h.5v5.5h-6.3V8.1h6.5v16.7h-.6c.6-1.7,1.6-3.1,3.2-4.2,1.6-1.1,3.4-1.6,5.6-1.6s4.2.5,5.9,1.6c1.7,1.1,3,2.6,3.9,4.6.9,2,1.4,4.4,1.4,7.2s-.5,5.1-1.4,7.2c-.9,2-2.2,3.6-3.9,4.7s-3.6,1.6-5.8,1.6ZM1382.9,40.9c1.9,0,3.5-.7,4.7-2.1,1.2-1.4,1.8-3.5,1.8-6.3s-.6-4.9-1.8-6.3c-1.2-1.4-2.7-2.1-4.7-2.1s-3.5.7-4.7,2.1c-1.2,1.4-1.8,3.5-1.8,6.3s.6,4.9,1.8,6.3c1.2,1.4,2.7,2.1,4.7,2.1Z"/>
    <path class="st0" d="M1409.3,46c-3,0-5.2-.8-6.7-2.5-1.4-1.7-2.2-4.1-2.2-7.4V8.1h6.5v27.7c0,1,.1,1.9.4,2.6.3.7.7,1.3,1.3,1.6.6.4,1.3.5,2.2.5s.8,0,1.1,0c.4,0,.7-.1,1.1-.2v5.2c-.7.1-1.3.3-1.9.3-.6,0-1.2.1-1.9.1Z"/>
    <path class="st0" d="M1416,13.9v-6.5h7.3v6.5h-7.3ZM1416.5,45.4v-25.9h6.5v25.9h-6.5Z"/>
    <path class="st0" d="M1438.2,46c-1.4,0-2.8-.1-4.1-.4-1.3-.2-2.6-.6-3.7-1-1.1-.4-2.1-1-2.9-1.7l1.7-4.3c.9.6,1.8,1.1,2.8,1.5,1,.4,2,.7,3.1,1s2.1.3,3.2.3c1.7,0,2.9-.3,3.7-.9.8-.6,1.2-1.4,1.2-2.3s-.3-1.4-.8-1.9c-.5-.4-1.3-.8-2.4-1l-5.2-1c-2.1-.4-3.8-1.2-4.9-2.4-1.1-1.2-1.7-2.7-1.7-4.6s.5-3.2,1.4-4.4c.9-1.2,2.2-2.2,3.8-2.9,1.6-.7,3.5-1,5.6-1s2.4.1,3.5.3c1.1.2,2.2.6,3.2,1,1,.4,1.9,1,2.7,1.7l-1.8,4.3c-.7-.6-1.4-1.1-2.3-1.5-.9-.4-1.8-.7-2.7-1-.9-.2-1.8-.3-2.7-.3-1.7,0-3,.3-3.8.9-.8.6-1.2,1.4-1.2,2.4s.2,1.4.7,1.9c.5.5,1.2.8,2.2,1l5.2,1c2.2.4,4,1.2,5.1,2.3,1.2,1.1,1.7,2.6,1.7,4.6s-.5,3.2-1.4,4.5c-.9,1.2-2.2,2.2-3.8,2.8-1.6.7-3.5,1-5.7,1Z"/>
    <path class="st0" d="M1453.6,45.4V8.1h6.5v16.6h-.7c.8-1.9,1.9-3.3,3.6-4.3,1.6-1,3.4-1.5,5.5-1.5s3.7.4,5,1.2c1.3.8,2.3,2,3,3.5.7,1.6,1,3.6,1,6v15.8h-6.5v-15.5c0-1.3-.2-2.4-.5-3.3-.3-.8-.8-1.5-1.5-1.9-.7-.4-1.5-.6-2.6-.6s-2.3.3-3.3.8c-.9.5-1.7,1.3-2.2,2.3-.5,1-.8,2.2-.8,3.5v14.6h-6.5Z"/>
    <path class="st0" d="M1495.7,46c-2.9,0-5.3-.5-7.4-1.6-2.1-1.1-3.7-2.7-4.8-4.7-1.1-2-1.7-4.4-1.7-7.2s.5-5,1.6-7c1.1-2,2.6-3.6,4.5-4.7,1.9-1.1,4.1-1.7,6.6-1.7s4.5.5,6.2,1.6,3.1,2.6,4,4.5c1,1.9,1.4,4.3,1.4,6.9v2h-19.2v-3.8h14.6l-.8.8c0-2.4-.5-4.2-1.6-5.5-1-1.3-2.5-1.9-4.5-1.9s-2.7.3-3.7,1c-1,.7-1.8,1.7-2.3,2.9-.5,1.3-.8,2.7-.8,4.5v.4c0,1.9.3,3.6.9,4.8s1.5,2.2,2.6,2.9c1.2.6,2.6,1,4.4,1s2.8-.2,4.3-.7c1.4-.4,2.7-1.1,3.9-2.1l1.8,4.5c-1.2,1-2.7,1.8-4.6,2.4-1.8.6-3.7.9-5.5.9Z"/>
    <path class="st0" d="M1510.9,45.4v-25.9h6.3v6.3h-.5c.5-2.1,1.4-3.7,2.9-4.8,1.4-1.1,3.3-1.8,5.7-1.9l2-.2.4,5.6-3.7.4c-2.1.2-3.7.9-4.8,2-1.1,1.1-1.6,2.7-1.6,4.7v13.9h-6.6Z"/>
    <path class="st0" d="M1540.4,46c-1.4,0-2.8-.1-4.1-.4-1.3-.2-2.6-.6-3.7-1-1.1-.4-2.1-1-2.9-1.7l1.7-4.3c.9.6,1.8,1.1,2.8,1.5,1,.4,2,.7,3.1,1s2.1.3,3.2.3c1.7,0,2.9-.3,3.7-.9.8-.6,1.2-1.4,1.2-2.3s-.3-1.4-.8-1.9c-.5-.4-1.3-.8-2.4-1l-5.2-1c-2.1-.4-3.8-1.2-4.9-2.4-1.1-1.2-1.7-2.7-1.7-4.6s.5-3.2,1.4-4.4c.9-1.2,2.2-2.2,3.8-2.9,1.6-.7,3.5-1,5.6-1s2.4.1,3.5.3c1.1.2,2.2.6,3.2,1,1,.4,1.9,1,2.7,1.7l-1.8,4.3c-.7-.6-1.4-1.1-2.3-1.5-.9-.4-1.8-.7-2.7-1-.9-.2-1.8-.3-2.7-.3-1.7,0-3,.3-3.8.9-.8.6-1.2,1.4-1.2,2.4s.2,1.4.7,1.9c.5.5,1.2.8,2.2,1l5.2,1c2.2.4,4,1.2,5.1,2.3,1.2,1.1,1.7,2.6,1.7,4.6s-.5,3.2-1.4,4.5c-.9,1.2-2.2,2.2-3.8,2.8-1.6.7-3.5,1-5.7,1Z"/>
    <path class="st0" d="M992.4,105.4l16.6-37.4h5.5l16.6,37.4h-6.8l-4.4-10.5,2.8,1.9h-21.9l2.8-1.9-4.4,10.5h-6.8ZM1011.6,75.4l-7.3,17.6-1.4-1.7h17.3l-1.3,1.7-7.3-17.6h-.1Z"/>
    <path class="st0" d="M1044.1,106c-1.4,0-2.8-.1-4.1-.4-1.3-.2-2.6-.6-3.7-1-1.1-.4-2.1-1-2.9-1.7l1.7-4.3c.9.6,1.8,1.1,2.8,1.5,1,.4,2,.7,3.1,1s2.1.3,3.2.3c1.7,0,2.9-.3,3.7-.9.8-.6,1.2-1.4,1.2-2.3s-.3-1.4-.8-1.9c-.5-.4-1.3-.8-2.4-1l-5.2-1c-2.1-.4-3.8-1.2-4.9-2.4-1.1-1.2-1.7-2.7-1.7-4.6s.5-3.2,1.4-4.4c.9-1.2,2.2-2.2,3.8-2.9,1.6-.7,3.5-1,5.6-1s2.4.1,3.5.3c1.1.2,2.2.6,3.2,1,1,.4,1.9,1,2.7,1.7l-1.8,4.3c-.7-.6-1.4-1.1-2.3-1.5-.9-.4-1.8-.7-2.7-1-.9-.2-1.8-.3-2.7-.3-1.7,0-3,.3-3.8.9s-1.2,1.4-1.2,2.4.2,1.4.7,1.9c.5.5,1.2.8,2.2,1l5.2,1c2.2.4,4,1.2,5.1,2.3,1.2,1.1,1.7,2.6,1.7,4.6s-.5,3.2-1.4,4.5c-.9,1.2-2.2,2.2-3.8,2.8-1.6.7-3.5,1-5.7,1Z"/>
    <path class="st0" d="M1068.5,106c-1.4,0-2.8-.1-4.1-.4-1.3-.2-2.6-.6-3.7-1-1.1-.4-2.1-1-2.9-1.7l1.7-4.3c.9.6,1.8,1.1,2.8,1.5,1,.4,2,.7,3.1,1s2.1.3,3.2.3c1.7,0,2.9-.3,3.7-.9.8-.6,1.2-1.4,1.2-2.3s-.3-1.4-.8-1.9c-.5-.4-1.3-.8-2.4-1l-5.2-1c-2.1-.4-3.8-1.2-4.9-2.4-1.1-1.2-1.7-2.7-1.7-4.6s.5-3.2,1.4-4.4c.9-1.2,2.2-2.2,3.8-2.9,1.6-.7,3.5-1,5.6-1s2.4.1,3.5.3c1.1.2,2.2.6,3.2,1,1,.4,1.9,1,2.7,1.7l-1.8,4.3c-.7-.6-1.4-1.1-2.3-1.5-.9-.4-1.8-.7-2.7-1-.9-.2-1.8-.3-2.7-.3-1.7,0-3,.3-3.8.9s-1.2,1.4-1.2,2.4.2,1.4.7,1.9c.5.5,1.2.8,2.2,1l5.2,1c2.2.4,4,1.2,5.1,2.3,1.2,1.1,1.7,2.6,1.7,4.6s-.5,3.2-1.4,4.5c-.9,1.2-2.2,2.2-3.8,2.8-1.6.7-3.5,1-5.7,1Z"/>
    <path class="st0" d="M1095.4,106c-2.6,0-4.9-.5-6.9-1.6-1.9-1.1-3.4-2.7-4.5-4.7-1.1-2-1.6-4.4-1.6-7.2s.5-5.1,1.6-7.2c1.1-2,2.6-3.6,4.5-4.7,1.9-1.1,4.2-1.6,6.9-1.6s4.9.5,6.9,1.6c1.9,1.1,3.4,2.7,4.5,4.7,1.1,2,1.6,4.4,1.6,7.2s-.5,5.2-1.6,7.2c-1.1,2-2.6,3.6-4.5,4.7-1.9,1.1-4.2,1.6-6.9,1.6ZM1095.4,100.9c1.9,0,3.5-.7,4.7-2.1,1.2-1.4,1.8-3.5,1.8-6.3s-.6-4.9-1.8-6.3c-1.2-1.4-2.7-2.1-4.7-2.1s-3.5.7-4.7,2.1c-1.2,1.4-1.8,3.5-1.8,6.3s.6,4.9,1.8,6.3c1.2,1.4,2.7,2.1,4.7,2.1Z"/>
    <path class="st0" d="M1124.8,106c-2.7,0-5-.6-7-1.7s-3.5-2.7-4.6-4.7c-1.1-2-1.6-4.5-1.6-7.2s.5-5.1,1.6-7.1c1.1-2,2.6-3.5,4.6-4.6,2-1.1,4.3-1.6,7-1.6s3.2.3,4.8.8c1.6.5,2.9,1.3,3.9,2.2l-1.9,4.6c-.9-.8-1.9-1.4-3-1.9-1.1-.4-2.2-.6-3.2-.6-2.3,0-4,.7-5.2,2.1-1.2,1.4-1.8,3.5-1.8,6.1s.6,4.7,1.8,6.2c1.2,1.5,3,2.3,5.2,2.3s2.1-.2,3.2-.6,2.2-1.1,3.1-1.9l1.9,4.7c-1,.9-2.4,1.7-4,2.2-1.6.5-3.2.8-4.8.8Z"/>
    <path class="st0" d="M1136.9,73.9v-6.5h7.3v6.5h-7.3ZM1137.3,105.4v-25.9h6.5v25.9h-6.5Z"/>
    <path class="st0" d="M1157.9,106c-1.8,0-3.5-.4-4.9-1.1-1.4-.7-2.6-1.7-3.4-2.9-.8-1.2-1.2-2.6-1.2-4.2s.5-3.4,1.5-4.5,2.5-1.9,4.7-2.4,5.1-.7,8.8-.7h2.6v3.8h-2.5c-1.6,0-3,0-4.1.2-1.1.1-2,.3-2.7.6-.7.3-1.2.6-1.5,1.1-.3.5-.4,1-.4,1.7,0,1.2.4,2.1,1.2,2.9.8.7,1.9,1.1,3.3,1.1s2.2-.3,3-.8c.9-.5,1.6-1.3,2.1-2.3.5-1,.8-2,.8-3.3v-6.1c0-1.8-.4-3-1.1-3.8s-2-1.2-3.8-1.2-2.9.2-4.4.7c-1.5.4-3,1.1-4.5,2l-1.9-4.5c.9-.6,2-1.2,3.2-1.7,1.2-.5,2.5-.8,3.9-1.1,1.4-.3,2.7-.4,3.9-.4,2.5,0,4.5.4,6.2,1.2,1.6.8,2.8,2,3.6,3.5.8,1.6,1.2,3.6,1.2,6.1v15.7h-6.1v-5.5h.4c-.2,1.2-.7,2.3-1.4,3.2-.7.9-1.6,1.6-2.7,2.1-1.1.5-2.3.7-3.7.7Z"/>
    <path class="st0" d="M1189,106c-3.4,0-5.9-.9-7.6-2.6-1.7-1.7-2.5-4.3-2.5-7.6v-11.3h-4.9v-5h4.9v-7.7h6.5v7.7h7.7v5h-7.7v10.9c0,1.7.4,3,1.1,3.8s1.9,1.3,3.5,1.3,1,0,1.5-.2,1.1-.3,1.6-.4l1,4.9c-.6.4-1.4.6-2.4.8s-1.9.3-2.8.3Z"/>
    <path class="st0" d="M1196.7,73.9v-6.5h7.3v6.5h-7.3ZM1197.1,105.4v-25.9h6.5v25.9h-6.5Z"/>
    <path class="st0" d="M1221.2,106c-2.6,0-4.9-.5-6.9-1.6-1.9-1.1-3.4-2.7-4.5-4.7-1.1-2-1.6-4.4-1.6-7.2s.5-5.1,1.6-7.2c1.1-2,2.6-3.6,4.5-4.7,1.9-1.1,4.2-1.6,6.9-1.6s4.9.5,6.9,1.6c1.9,1.1,3.4,2.7,4.5,4.7,1.1,2,1.6,4.4,1.6,7.2s-.5,5.2-1.6,7.2c-1.1,2-2.6,3.6-4.5,4.7-1.9,1.1-4.2,1.6-6.9,1.6ZM1221.2,100.9c1.9,0,3.5-.7,4.7-2.1,1.2-1.4,1.8-3.5,1.8-6.3s-.6-4.9-1.8-6.3c-1.2-1.4-2.7-2.1-4.7-2.1s-3.5.7-4.7,2.1c-1.2,1.4-1.8,3.5-1.8,6.3s.6,4.9,1.8,6.3c1.2,1.4,2.7,2.1,4.7,2.1Z"/>
    <path class="st0" d="M1238.8,105.4v-25.9h6.3v5.2h-.6c.8-1.9,1.9-3.3,3.6-4.3s3.4-1.5,5.5-1.5,3.7.4,5,1.2c1.3.8,2.3,2,3,3.5.7,1.6,1,3.6,1,6v15.8h-6.5v-15.5c0-1.3-.2-2.4-.5-3.3-.3-.8-.8-1.5-1.5-1.9-.7-.4-1.5-.6-2.6-.6s-2.3.3-3.3.8-1.7,1.3-2.2,2.3-.8,2.2-.8,3.5v14.6h-6.5Z"/>
  </g>
  <g>
    <path class="st1" d="M0,2.6h32.3l24,74.5L79.8,2.6h31.6v108.5h-21.3V34l-25.3,77.1h-17.5L21.6,34.7v76.4H0V2.6Z"/>
    <path class="st1" d="M212.5,15.8c9.3,10.5,14,24.3,14,41.2s-4.7,30.7-14,41.1c-9.3,10.4-21.5,15.6-36.7,15.6s-27.6-5.2-36.9-15.6c-9.4-10.4-14-24.1-14-41.1s4.7-31,14-41.4c9.3-10.4,21.7-15.6,37.1-15.6s27.2,5.3,36.6,15.8ZM155.3,29.6c-5.1,6.7-7.6,15.7-7.6,27s2.5,20.8,7.5,27.4c5,6.6,11.9,10,20.7,10.1,8.6,0,15.3-3.4,20.3-10.1s7.4-15.8,7.4-27.4-2.5-20.4-7.5-27.1c-5-6.7-11.8-10-20.4-10s-15.3,3.4-20.3,10.1Z"/>
    <path class="st1" d="M294.7,34.9c-.9-10.8-7.4-16.2-19.5-16.2s-9.3,1.1-12.2,3.3c-2.9,2.2-4.4,5.2-4.4,9.1s.2,2.5.6,3.5c.4,1,1.1,2,2.2,2.8,1.1.9,2.1,1.6,3.2,2.1,1.1.6,2.6,1.2,4.7,1.8s4,1.2,5.6,1.8c1.7.5,4.1,1.2,7.2,2,3.1.8,5.8,1.6,8.1,2.3,10.1,3,17.7,6.9,22.7,11.4s7.5,11.1,7.5,19.7-1.2,11.6-3.6,16.2-5.7,8.3-9.8,11c-4.1,2.7-8.6,4.7-13.5,5.9-4.9,1.3-10.1,1.9-15.6,1.9-14,0-24.9-3.4-32.8-10.1-7.9-6.8-11.8-16.3-11.9-28.6h22.4c.4,13.6,8.2,20.4,23.3,20.4s10.5-1.3,14-3.9,5.1-6.1,5.1-10.6-1.6-6.5-4.7-8.2c-3.1-1.7-9.7-4.1-19.8-7.2-.6-.1-1-.2-1.3-.3-.3-.1-.7-.2-1.2-.4-.5-.2-.9-.3-1.3-.4-3.5-1-5.9-1.8-7.2-2.2-1.4-.5-3.5-1.2-6.4-2.4-2.9-1.1-5.1-2.1-6.4-3-1.4-.9-3-2.2-5-3.8-2-1.6-3.4-3.3-4.3-5.1s-1.7-4-2.4-6.6c-.7-2.6-1.1-5.4-1.1-8.5,0-9.9,3.6-17.7,10.9-23.6,7.2-5.9,16.8-8.8,28.8-8.8s21,2.9,28.4,8.6c7.3,5.7,11.1,14.4,11.3,26h-21.4Z"/>
    <path class="st1" d="M407.9,22.9h-31v88.2h-22.7V22.9h-31V2.6h84.7v20.3Z"/>
  </g>
  <g>
    <path class="st1" d="M455.7,2.6h22l40.6,72.7V2.6h20.8v108.5h-21.6l-40.8-72.8v72.8h-20.9V2.6Z"/>
    <path class="st1" d="M630.6,22.1h-52.5v23.6h48.2v18.7h-48.2v26.7h53.4v20h-74.9V2.6h73.9v19.5Z"/>
    <path class="st1" d="M658.6,2.6l15.8,73.8,17.3-73.8h20.4l17,74.7,16.3-74.7h21.3l-26.6,108.5h-21.6l-16.9-74.1-16.6,74.1h-22l-26.2-108.5h21.7Z"/>
    <path class="st1" d="M825.9,34.9c-.8-10.8-7.1-16.2-18.7-16.2s-8.9,1.1-11.7,3.3c-2.8,2.2-4.2,5.2-4.2,9.1s.2,2.5.6,3.5c.4,1,1.1,2,2.1,2.8,1,.9,2,1.6,3,2.1,1,.6,2.5,1.2,4.5,1.8s3.8,1.2,5.4,1.8,3.9,1.2,6.9,2c3,.8,5.5,1.6,7.8,2.3,9.7,3,16.9,6.9,21.7,11.4,4.8,4.6,7.1,11.1,7.1,19.7s-1.2,11.6-3.5,16.2-5.4,8.3-9.3,11c-3.9,2.7-8.2,4.7-12.9,5.9-4.7,1.3-9.6,1.9-14.9,1.9-13.4,0-23.8-3.4-31.4-10.1-7.5-6.8-11.3-16.3-11.4-28.6h21.5c.4,13.6,7.8,20.4,22.3,20.4s10.1-1.3,13.4-3.9,4.9-6.1,4.9-10.6-1.5-6.5-4.5-8.2c-3-1.7-9.3-4.1-18.9-7.2-.6-.1-1-.2-1.2-.3-.3-.1-.6-.2-1.1-.4s-.9-.3-1.2-.4c-3.3-1-5.6-1.8-6.9-2.2s-3.3-1.2-6.2-2.4c-2.8-1.1-4.9-2.1-6.2-3-1.3-.9-2.9-2.2-4.8-3.8-1.9-1.6-3.3-3.3-4.1-5.1-.8-1.8-1.6-4-2.3-6.6-.7-2.6-1-5.4-1-8.5,0-9.9,3.5-17.7,10.4-23.6,6.9-5.9,16.1-8.8,27.6-8.8s20.1,2.9,27.1,8.6c7,5.7,10.6,14.4,10.8,26h-20.5Z"/>
  </g>
  <rect class="st0" x="924.3" y="9" width="6" height="96.4"/>
</svg>